<svg class="icon" viewBox="0 0 1088 1024" version="1.1" xmlns="http://www.w3.org/2000/svg" xmlns:xlink="http://www.w3.org/1999/xlink" width="136" height="128"><path d="M65.984 0h318.528A64.64 64.64 0 0 1 449.28 64.576L348.16 165.376l510.72 510.784L959.36 576c35.648 0 64.576 28.8 64.576 64.384v316.544c0 35.52-28.928 64.384-64.576 64.384h-317.568a64.448 64.448 0 0 1-64.576-64.384l101.248-100.928-510.72-510.72-101.76 101.44A64.64 64.64 0 0 1 1.216 382.144V64.576A64.704 64.704 0 0 1 65.984 0z" ></path></svg>
